<svg xmlns="http://www.w3.org/2000/svg" xmlns:xlink="http://www.w3.org/1999/xlink" width="500" zoomAndPan="magnify" viewBox="0 0 375 374.999991" height="500" preserveAspectRatio="xMidYMid meet" version="1.0"><defs><g/><clipPath id="id1"><path d="M 117.660156 99 L 257.160156 99 L 257.160156 231 L 117.660156 231 Z M 117.660156 99 " clip-rule="nonzero"/></clipPath><clipPath id="id2"><path d="M 216.453125 129.582031 L 228.0625 129.582031 L 228.0625 141.617188 L 216.453125 141.617188 Z M 216.453125 129.582031 " clip-rule="nonzero"/></clipPath><clipPath id="id3"><path d="M 147.0625 196.4375 L 162.410156 196.4375 L 162.410156 211.730469 L 147.0625 211.730469 Z M 147.0625 196.4375 " clip-rule="nonzero"/></clipPath></defs><g clip-path="url(#id1)"><path fill="#a6c868" d="M 252.6875 99.011719 L 216.214844 99.011719 C 218.355469 103.296875 219.78125 108.101562 220.292969 113.214844 C 222.21875 114.09375 223.574219 116.03125 223.574219 118.300781 C 223.574219 120.640625 222.136719 122.644531 220.101562 123.480469 C 219.449219 123.746094 218.742188 123.898438 217.992188 123.898438 C 217.074219 123.898438 216.214844 123.671875 215.449219 123.28125 C 213.644531 122.351562 212.410156 120.472656 212.410156 118.300781 C 212.410156 116.335938 213.421875 114.621094 214.953125 113.621094 C 214.394531 108.234375 212.6875 103.25 210.128906 99.011719 L 164.742188 99.011719 C 162.179688 103.253906 160.472656 108.246094 159.917969 113.640625 C 161.421875 114.644531 162.425781 116.351562 162.425781 118.300781 C 162.425781 120.472656 161.191406 122.351562 159.386719 123.28125 C 158.621094 123.671875 157.761719 123.898438 156.84375 123.898438 C 156.097656 123.898438 155.386719 123.746094 154.738281 123.480469 C 152.699219 122.644531 151.265625 120.640625 151.265625 118.300781 C 151.265625 116.019531 152.628906 114.070312 154.578125 113.199219 C 155.089844 108.089844 156.507812 103.292969 158.648438 99.007812 L 122.125 99.007812 L 117.660156 221.921875 C 117.660156 226.871094 121.660156 230.886719 126.597656 230.886719 L 248.21875 230.886719 C 253.160156 230.886719 257.164062 226.871094 257.164062 221.921875 Z M 252.6875 99.011719 " fill-opacity="1" fill-rule="nonzero"/></g><path fill="#a6c868" d="M 155.0625 117.386719 L 155.074219 117.484375 C 155.128906 118.535156 155.988281 119.359375 157.03125 119.359375 C 158.078125 119.359375 158.9375 118.539062 158.992188 117.484375 L 159.003906 117.242188 C 159.128906 99.1875 171.832031 84.539062 187.433594 84.539062 C 203.066406 84.539062 215.792969 99.242188 215.867188 117.347656 L 215.878906 117.484375 C 215.929688 118.535156 216.789062 119.359375 217.835938 119.359375 C 218.882812 119.359375 219.742188 118.535156 219.800781 117.484375 L 219.808594 117.320312 C 219.699219 97.039062 205.191406 80.585938 187.433594 80.585938 C 169.660156 80.585938 155.140625 97.078125 155.0625 117.347656 Z M 155.0625 117.386719 " fill-opacity="1" fill-rule="nonzero"/><path fill="#ffffff" d="M 189.011719 192.539062 C 175.921875 192.539062 165.273438 181.867188 165.273438 168.753906 C 165.273438 155.636719 175.921875 144.96875 189.011719 144.96875 C 202.101562 144.96875 212.75 155.636719 212.75 168.753906 C 212.75 181.867188 202.101562 192.539062 189.011719 192.539062 Z M 189.011719 146.875 C 176.976562 146.875 167.179688 156.6875 167.179688 168.753906 C 167.179688 180.816406 176.972656 190.628906 189.011719 190.628906 C 201.050781 190.628906 210.84375 180.816406 210.84375 168.753906 C 210.84375 156.6875 201.050781 146.875 189.011719 146.875 " fill-opacity="1" fill-rule="evenodd"/><path fill="#ffffff" d="M 189.011719 205.457031 C 187.15625 205.457031 185.304688 204.976562 183.648438 204.023438 L 182.167969 203.167969 C 180.828125 202.394531 179.300781 201.980469 177.753906 201.980469 L 176.050781 201.980469 C 172.230469 201.980469 168.671875 199.921875 166.761719 196.605469 L 165.90625 195.121094 C 165.132812 193.785156 164.015625 192.664062 162.679688 191.890625 L 161.203125 191.039062 C 157.898438 189.125 155.835938 185.5625 155.835938 181.730469 L 155.835938 180.019531 C 155.835938 178.472656 155.425781 176.945312 154.65625 175.601562 L 153.796875 174.117188 C 151.886719 170.808594 151.886719 166.683594 153.796875 163.375 L 154.65625 161.890625 C 155.425781 160.550781 155.835938 159.023438 155.835938 157.472656 L 155.835938 155.761719 C 155.835938 151.933594 157.890625 148.367188 161.203125 146.453125 L 162.679688 145.601562 C 164.015625 144.824219 165.136719 143.707031 165.90625 142.371094 L 166.761719 140.886719 C 168.671875 137.574219 172.226562 135.511719 176.050781 135.511719 L 177.757812 135.515625 C 179.300781 135.515625 180.828125 135.105469 182.167969 134.332031 L 183.648438 133.476562 C 186.953125 131.558594 191.066406 131.558594 194.371094 133.476562 L 195.851562 134.332031 C 197.191406 135.105469 198.71875 135.515625 200.261719 135.515625 L 201.96875 135.515625 C 205.789062 135.515625 209.34375 137.570312 211.257812 140.890625 L 212.113281 142.375 C 212.886719 143.714844 214.003906 144.835938 215.335938 145.605469 L 216.816406 146.457031 C 220.121094 148.371094 222.183594 151.933594 222.183594 155.765625 L 222.183594 157.476562 C 222.183594 159.023438 222.59375 160.550781 223.363281 161.894531 L 224.222656 163.378906 C 226.132812 166.691406 226.132812 170.8125 224.222656 174.125 L 223.363281 175.605469 C 222.59375 176.945312 222.183594 178.476562 222.183594 180.027344 L 222.183594 181.738281 C 222.183594 185.5625 220.128906 189.128906 216.816406 191.042969 L 215.335938 191.894531 C 214 192.671875 212.882812 193.792969 212.113281 195.128906 L 211.257812 196.613281 C 209.34375 199.921875 205.792969 201.984375 201.96875 201.984375 L 200.261719 201.980469 C 198.71875 201.980469 197.191406 202.394531 195.851562 203.167969 L 194.371094 204.023438 C 192.722656 204.976562 190.863281 205.457031 189.011719 205.457031 Z M 176.054688 137.429688 C 172.910156 137.429688 169.984375 139.121094 168.417969 141.847656 L 167.5625 143.332031 C 166.625 144.960938 165.265625 146.324219 163.636719 147.265625 L 162.15625 148.121094 C 159.4375 149.6875 157.746094 152.625 157.746094 155.769531 L 157.746094 157.480469 C 157.746094 159.363281 157.246094 161.222656 156.308594 162.855469 L 155.449219 164.339844 C 153.882812 167.0625 153.882812 170.449219 155.449219 173.175781 L 156.308594 174.65625 C 157.246094 176.289062 157.746094 178.148438 157.746094 180.035156 L 157.746094 181.746094 C 157.746094 184.894531 159.433594 187.828125 162.15625 189.394531 L 163.636719 190.25 C 165.265625 191.191406 166.621094 192.550781 167.5625 194.183594 L 168.417969 195.664062 C 169.984375 198.390625 172.914062 200.085938 176.054688 200.085938 L 177.761719 200.074219 C 179.644531 200.074219 181.496094 200.574219 183.128906 201.519531 L 184.609375 202.375 C 187.328125 203.945312 190.707031 203.945312 193.425781 202.375 L 194.90625 201.519531 C 196.53125 200.574219 198.390625 200.074219 200.269531 200.074219 L 201.972656 200.074219 C 205.117188 200.074219 208.042969 198.382812 209.609375 195.65625 L 210.464844 194.171875 C 211.40625 192.542969 212.765625 191.183594 214.390625 190.238281 L 215.871094 189.386719 C 218.589844 187.816406 220.28125 184.878906 220.28125 181.734375 L 220.28125 180.023438 C 220.28125 178.140625 220.78125 176.285156 221.722656 174.648438 L 222.578125 173.164062 C 224.148438 170.441406 224.148438 167.054688 222.578125 164.328125 L 221.722656 162.847656 C 220.785156 161.214844 220.28125 159.355469 220.28125 157.472656 L 220.28125 155.761719 C 220.28125 152.609375 218.59375 149.679688 215.871094 148.109375 L 214.390625 147.253906 C 212.761719 146.316406 211.40625 144.953125 210.464844 143.324219 L 209.609375 141.839844 C 208.042969 139.117188 205.113281 137.421875 201.972656 137.421875 L 200.265625 137.429688 C 198.386719 137.429688 196.53125 136.933594 194.902344 135.988281 L 193.421875 135.128906 C 190.703125 133.558594 187.320312 133.558594 184.605469 135.128906 L 183.125 135.988281 C 181.496094 136.929688 179.636719 137.429688 177.757812 137.429688 L 176.054688 137.429688 " fill-opacity="1" fill-rule="evenodd"/><path fill="#ffffff" d="M 179.914062 182.644531 C 178.691406 182.644531 177.472656 182.179688 176.539062 181.246094 C 174.683594 179.382812 174.683594 176.351562 176.539062 174.492188 L 194.738281 156.257812 C 196.597656 154.394531 199.625 154.394531 201.480469 156.257812 C 203.335938 158.117188 203.335938 161.148438 201.480469 163.011719 L 183.28125 181.246094 C 182.355469 182.171875 181.132812 182.644531 179.914062 182.644531 Z M 177.890625 179.894531 C 179.003906 181.011719 180.820312 181.011719 181.9375 179.894531 L 200.132812 161.65625 C 201.25 160.542969 201.25 158.71875 200.132812 157.605469 C 199.023438 156.488281 197.207031 156.488281 196.089844 157.605469 L 177.890625 175.839844 C 176.773438 176.960938 176.773438 178.773438 177.890625 179.894531 " fill-opacity="1" fill-rule="evenodd"/><path fill="#ffffff" d="M 197.777344 180.949219 C 196.554688 180.949219 195.332031 180.488281 194.402344 179.554688 C 192.546875 177.691406 192.546875 174.664062 194.402344 172.800781 C 196.257812 170.941406 199.285156 170.941406 201.140625 172.800781 C 203 174.664062 203 177.691406 201.140625 179.554688 C 200.214844 180.488281 198.996094 180.949219 197.777344 180.949219 Z M 197.777344 173.3125 C 197.042969 173.3125 196.308594 173.59375 195.75 174.152344 C 194.636719 175.269531 194.636719 177.089844 195.75 178.207031 C 196.867188 179.324219 198.683594 179.324219 199.796875 178.207031 C 200.910156 177.089844 200.910156 175.269531 199.796875 174.152344 C 199.242188 173.59375 198.511719 173.3125 197.777344 173.3125 " fill-opacity="1" fill-rule="evenodd"/><path fill="#ffffff" d="M 181.597656 164.742188 C 180.375 164.742188 179.15625 164.277344 178.230469 163.34375 C 176.371094 161.480469 176.371094 158.453125 178.230469 156.589844 C 180.089844 154.730469 183.113281 154.730469 184.972656 156.589844 C 186.828125 158.453125 186.828125 161.480469 184.972656 163.34375 C 184.039062 164.277344 182.820312 164.742188 181.597656 164.742188 Z M 181.597656 157.101562 C 180.867188 157.101562 180.132812 157.382812 179.574219 157.945312 C 178.460938 159.058594 178.460938 160.878906 179.574219 161.996094 C 180.6875 163.113281 182.507812 163.113281 183.621094 161.996094 C 184.738281 160.878906 184.738281 159.058594 183.621094 157.945312 C 183.0625 157.386719 182.328125 157.101562 181.597656 157.101562 Z M 181.597656 157.101562 " fill-opacity="1" fill-rule="evenodd"/><g clip-path="url(#id2)"><path fill="#ffffff" d="M 222.378906 141.046875 C 219.222656 141.046875 216.660156 138.476562 216.660156 135.316406 C 216.660156 132.152344 219.222656 129.582031 222.378906 129.582031 C 225.535156 129.582031 228.097656 132.152344 228.097656 135.316406 C 228.097656 138.476562 225.535156 141.046875 222.378906 141.046875 Z M 222.378906 131.496094 C 220.277344 131.496094 218.5625 133.210938 218.5625 135.320312 C 218.5625 137.425781 220.277344 139.140625 222.378906 139.140625 C 224.480469 139.140625 226.191406 137.425781 226.191406 135.320312 C 226.191406 133.210938 224.480469 131.496094 222.378906 131.496094 " fill-opacity="1" fill-rule="evenodd"/></g><g clip-path="url(#id3)"><path fill="#ffffff" d="M 154.691406 211.730469 C 150.484375 211.730469 147.0625 208.304688 147.0625 204.089844 C 147.0625 199.875 150.484375 196.445312 154.691406 196.445312 C 158.898438 196.445312 162.320312 199.875 162.320312 204.089844 C 162.320312 208.308594 158.898438 211.730469 154.691406 211.730469 Z M 154.691406 198.359375 C 151.539062 198.359375 148.96875 200.933594 148.96875 204.09375 C 148.96875 207.253906 151.539062 209.824219 154.691406 209.824219 C 157.84375 209.824219 160.410156 207.253906 160.410156 204.09375 C 160.410156 200.933594 157.84375 198.359375 154.691406 198.359375 " fill-opacity="1" fill-rule="evenodd"/></g><g fill="#6c584c" fill-opacity="1"><g transform="translate(8.589848, 285.849591)"><g><path d="M 3.15625 -2.453125 L 3.15625 -29.046875 C 3.15625 -29.710938 3.398438 -30.289062 3.890625 -30.78125 C 4.378906 -31.269531 4.953125 -31.515625 5.609375 -31.515625 L 21.40625 -31.515625 C 22.070312 -31.515625 22.648438 -31.269531 23.140625 -30.78125 C 23.628906 -30.289062 23.875 -29.710938 23.875 -29.046875 L 23.875 -27.0625 C 23.875 -26.40625 23.628906 -25.832031 23.140625 -25.34375 C 22.648438 -24.851562 22.070312 -24.609375 21.40625 -24.609375 L 12.171875 -24.609375 C 11.910156 -24.609375 11.78125 -24.492188 11.78125 -24.265625 L 11.78125 -19.8125 C 11.78125 -19.550781 11.910156 -19.421875 12.171875 -19.421875 L 20.546875 -19.421875 C 21.210938 -19.421875 21.789062 -19.175781 22.28125 -18.6875 C 22.769531 -18.195312 23.015625 -17.625 23.015625 -16.96875 L 23.015625 -15.40625 C 23.015625 -14.75 22.769531 -14.175781 22.28125 -13.6875 C 21.789062 -13.195312 21.210938 -12.953125 20.546875 -12.953125 L 12.171875 -12.953125 C 11.910156 -12.953125 11.78125 -12.835938 11.78125 -12.609375 L 11.78125 -7.296875 C 11.78125 -7.035156 11.910156 -6.90625 12.171875 -6.90625 L 21.40625 -6.90625 C 22.070312 -6.90625 22.648438 -6.660156 23.140625 -6.171875 C 23.628906 -5.679688 23.875 -5.109375 23.875 -4.453125 L 23.875 -2.453125 C 23.875 -1.796875 23.628906 -1.222656 23.140625 -0.734375 C 22.648438 -0.242188 22.070312 0 21.40625 0 L 5.609375 0 C 4.953125 0 4.378906 -0.242188 3.890625 -0.734375 C 3.398438 -1.222656 3.15625 -1.796875 3.15625 -2.453125 Z M 3.15625 -2.453125 "/></g></g></g><g fill="#6c584c" fill-opacity="1"><g transform="translate(35.183764, 285.849591)"><g><path d="M 18.90625 -25.046875 C 16.113281 -25.046875 13.941406 -24.242188 12.390625 -22.640625 C 10.835938 -21.046875 10.0625 -18.75 10.0625 -15.75 C 10.0625 -12.875 10.875 -10.609375 12.5 -8.953125 C 14.125 -7.296875 16.257812 -6.46875 18.90625 -6.46875 C 20.601562 -6.46875 22.273438 -6.859375 23.921875 -7.640625 C 24.460938 -7.929688 25.039062 -7.96875 25.65625 -7.75 C 26.28125 -7.53125 26.691406 -7.132812 26.890625 -6.5625 L 27.546875 -4.875 C 27.804688 -4.21875 27.816406 -3.539062 27.578125 -2.84375 C 27.347656 -2.15625 26.921875 -1.65625 26.296875 -1.34375 C 23.847656 -0.15625 21.097656 0.4375 18.046875 0.4375 C 12.953125 0.4375 8.867188 -1.007812 5.796875 -3.90625 C 2.734375 -6.800781 1.203125 -10.75 1.203125 -15.75 C 1.203125 -20.820312 2.675781 -24.789062 5.625 -27.65625 C 8.582031 -30.519531 12.722656 -31.953125 18.046875 -31.953125 C 21.097656 -31.953125 23.847656 -31.359375 26.296875 -30.171875 C 26.921875 -29.859375 27.347656 -29.351562 27.578125 -28.65625 C 27.816406 -27.96875 27.804688 -27.296875 27.546875 -26.640625 L 26.890625 -24.953125 C 26.691406 -24.378906 26.28125 -23.984375 25.65625 -23.765625 C 25.039062 -23.546875 24.460938 -23.582031 23.921875 -23.875 C 22.273438 -24.65625 20.601562 -25.046875 18.90625 -25.046875 Z M 18.90625 -25.046875 "/></g></g></g><g fill="#6c584c" fill-opacity="1"><g transform="translate(65.188259, 285.849591)"><g><path d="M 10.0625 -15.75 C 10.0625 -9.707031 12.503906 -6.6875 17.390625 -6.6875 C 22.285156 -6.6875 24.734375 -9.707031 24.734375 -15.75 C 24.734375 -21.800781 22.285156 -24.828125 17.390625 -24.828125 C 12.503906 -24.828125 10.0625 -21.800781 10.0625 -15.75 Z M 5.578125 -27.609375 C 8.503906 -30.503906 12.441406 -31.953125 17.390625 -31.953125 C 22.347656 -31.953125 26.285156 -30.503906 29.203125 -27.609375 C 32.128906 -24.710938 33.59375 -20.757812 33.59375 -15.75 C 33.59375 -10.75 32.128906 -6.800781 29.203125 -3.90625 C 26.285156 -1.007812 22.347656 0.4375 17.390625 0.4375 C 12.441406 0.4375 8.503906 -1.007812 5.578125 -3.90625 C 2.660156 -6.800781 1.203125 -10.75 1.203125 -15.75 C 1.203125 -20.757812 2.660156 -24.710938 5.578125 -27.609375 Z M 5.578125 -27.609375 "/></g></g></g><g fill="#6c584c" fill-opacity="1"><g transform="translate(99.984842, 285.849591)"><g><path d="M 21.0625 -14.296875 L 21.0625 -29.046875 C 21.0625 -29.710938 21.304688 -30.289062 21.796875 -30.78125 C 22.285156 -31.269531 22.863281 -31.515625 23.53125 -31.515625 L 27.03125 -31.515625 C 27.6875 -31.515625 28.257812 -31.269531 28.75 -30.78125 C 29.238281 -30.289062 29.484375 -29.710938 29.484375 -29.046875 L 29.484375 -2.453125 C 29.484375 -1.796875 29.238281 -1.222656 28.75 -0.734375 C 28.257812 -0.242188 27.6875 0 27.03125 0 L 23.53125 0 C 21.882812 0 20.675781 -0.71875 19.90625 -2.15625 L 11.65625 -17.21875 C 11.65625 -17.25 11.640625 -17.265625 11.609375 -17.265625 C 11.578125 -17.265625 11.5625 -17.25 11.5625 -17.21875 L 11.5625 -2.453125 C 11.5625 -1.796875 11.316406 -1.222656 10.828125 -0.734375 C 10.347656 -0.242188 9.773438 0 9.109375 0 L 5.609375 0 C 4.953125 0 4.378906 -0.242188 3.890625 -0.734375 C 3.398438 -1.222656 3.15625 -1.796875 3.15625 -2.453125 L 3.15625 -29.046875 C 3.15625 -29.710938 3.398438 -30.289062 3.890625 -30.78125 C 4.378906 -31.269531 4.953125 -31.515625 5.609375 -31.515625 L 9.109375 -31.515625 C 10.742188 -31.515625 11.953125 -30.796875 12.734375 -29.359375 L 20.984375 -14.296875 C 20.984375 -14.265625 20.992188 -14.25 21.015625 -14.25 C 21.046875 -14.25 21.0625 -14.265625 21.0625 -14.296875 Z M 21.0625 -14.296875 "/></g></g></g><g fill="#6c584c" fill-opacity="1"><g transform="translate(132.62283, 285.849591)"><g><path d="M 10.0625 -15.75 C 10.0625 -9.707031 12.503906 -6.6875 17.390625 -6.6875 C 22.285156 -6.6875 24.734375 -9.707031 24.734375 -15.75 C 24.734375 -21.800781 22.285156 -24.828125 17.390625 -24.828125 C 12.503906 -24.828125 10.0625 -21.800781 10.0625 -15.75 Z M 5.578125 -27.609375 C 8.503906 -30.503906 12.441406 -31.953125 17.390625 -31.953125 C 22.347656 -31.953125 26.285156 -30.503906 29.203125 -27.609375 C 32.128906 -24.710938 33.59375 -20.757812 33.59375 -15.75 C 33.59375 -10.75 32.128906 -6.800781 29.203125 -3.90625 C 26.285156 -1.007812 22.347656 0.4375 17.390625 0.4375 C 12.441406 0.4375 8.503906 -1.007812 5.578125 -3.90625 C 2.660156 -6.800781 1.203125 -10.75 1.203125 -15.75 C 1.203125 -20.757812 2.660156 -24.710938 5.578125 -27.609375 Z M 5.578125 -27.609375 "/></g></g></g><g fill="#6c584c" fill-opacity="1"><g transform="translate(167.419413, 285.849591)"><g/></g></g><g fill="#6c584c" fill-opacity="1"><g transform="translate(181.148087, 285.849591)"><g><path d="M 19.515625 -13 L 25.90625 -29.234375 C 26.164062 -29.921875 26.601562 -30.472656 27.21875 -30.890625 C 27.832031 -31.304688 28.515625 -31.515625 29.265625 -31.515625 L 33.5 -31.515625 C 34.164062 -31.515625 34.742188 -31.269531 35.234375 -30.78125 C 35.722656 -30.289062 35.96875 -29.710938 35.96875 -29.046875 L 35.96875 -2.453125 C 35.96875 -1.796875 35.722656 -1.222656 35.234375 -0.734375 C 34.742188 -0.242188 34.164062 0 33.5 0 L 30.140625 0 C 29.472656 0 28.894531 -0.242188 28.40625 -0.734375 C 27.914062 -1.222656 27.671875 -1.796875 27.671875 -2.453125 L 27.671875 -17.21875 C 27.671875 -17.25 27.65625 -17.265625 27.625 -17.265625 C 27.601562 -17.265625 27.59375 -17.25 27.59375 -17.21875 L 24.265625 -8.765625 C 24.003906 -8.078125 23.5625 -7.519531 22.9375 -7.09375 C 22.320312 -6.675781 21.640625 -6.46875 20.890625 -6.46875 L 18.046875 -6.46875 C 17.296875 -6.46875 16.609375 -6.675781 15.984375 -7.09375 C 15.367188 -7.519531 14.929688 -8.078125 14.671875 -8.765625 L 11.359375 -17.21875 C 11.359375 -17.25 11.34375 -17.265625 11.3125 -17.265625 C 11.28125 -17.265625 11.265625 -17.25 11.265625 -17.21875 L 11.265625 -2.453125 C 11.265625 -1.796875 11.019531 -1.222656 10.53125 -0.734375 C 10.039062 -0.242188 9.46875 0 8.8125 0 L 5.609375 0 C 4.953125 0 4.378906 -0.242188 3.890625 -0.734375 C 3.398438 -1.222656 3.15625 -1.796875 3.15625 -2.453125 L 3.15625 -29.046875 C 3.15625 -29.710938 3.398438 -30.289062 3.890625 -30.78125 C 4.378906 -31.269531 4.953125 -31.515625 5.609375 -31.515625 L 9.671875 -31.515625 C 10.421875 -31.515625 11.101562 -31.304688 11.71875 -30.890625 C 12.34375 -30.472656 12.78125 -29.921875 13.03125 -29.234375 L 19.421875 -13 C 19.421875 -12.96875 19.4375 -12.953125 19.46875 -12.953125 C 19.5 -12.953125 19.515625 -12.96875 19.515625 -13 Z M 19.515625 -13 "/></g></g></g><g fill="#6c584c" fill-opacity="1"><g transform="translate(220.261862, 285.849591)"><g><path d="M 12.65625 -12.515625 L 17.578125 -12.515625 C 17.828125 -12.515625 17.925781 -12.628906 17.875 -12.859375 L 15.203125 -24.140625 C 15.203125 -24.160156 15.171875 -24.171875 15.109375 -24.171875 C 15.078125 -24.171875 15.0625 -24.160156 15.0625 -24.140625 L 12.390625 -12.859375 C 12.328125 -12.628906 12.414062 -12.515625 12.65625 -12.515625 Z M 13.125 -31.515625 L 17.3125 -31.515625 C 18.03125 -31.515625 18.679688 -31.296875 19.265625 -30.859375 C 19.859375 -30.429688 20.269531 -29.875 20.5 -29.1875 L 29.359375 -2.328125 C 29.554688 -1.753906 29.472656 -1.222656 29.109375 -0.734375 C 28.753906 -0.242188 28.273438 0 27.671875 0 L 23.40625 0 C 22.675781 0 22.03125 -0.222656 21.46875 -0.671875 C 20.914062 -1.117188 20.550781 -1.6875 20.375 -2.375 L 19.59375 -5.703125 C 19.539062 -5.929688 19.382812 -6.046875 19.125 -6.046875 L 11.09375 -6.046875 C 10.863281 -6.046875 10.71875 -5.929688 10.65625 -5.703125 L 9.890625 -2.375 C 9.710938 -1.6875 9.34375 -1.117188 8.78125 -0.671875 C 8.21875 -0.222656 7.578125 0 6.859375 0 L 2.765625 0 C 2.160156 0 1.675781 -0.242188 1.3125 -0.734375 C 0.957031 -1.222656 0.878906 -1.753906 1.078125 -2.328125 L 9.921875 -29.1875 C 10.160156 -29.875 10.570312 -30.429688 11.15625 -30.859375 C 11.75 -31.296875 12.40625 -31.515625 13.125 -31.515625 Z M 13.125 -31.515625 "/></g></g></g><g fill="#6c584c" fill-opacity="1"><g transform="translate(250.654896, 285.849591)"><g><path d="M 13.9375 -17.265625 C 15.40625 -17.265625 16.5625 -17.628906 17.40625 -18.359375 C 18.257812 -19.097656 18.6875 -20.101562 18.6875 -21.375 C 18.6875 -24.101562 17.101562 -25.46875 13.9375 -25.46875 C 13.21875 -25.46875 12.554688 -25.425781 11.953125 -25.34375 C 11.691406 -25.28125 11.5625 -25.117188 11.5625 -24.859375 L 11.5625 -17.65625 C 11.5625 -17.394531 11.679688 -17.265625 11.921875 -17.265625 Z M 21.328125 -13.734375 C 22.191406 -13.242188 22.90625 -12.625 23.46875 -11.875 C 24.03125 -11.125 24.566406 -10.046875 25.078125 -8.640625 L 27.375 -2.28125 C 27.570312 -1.707031 27.5 -1.179688 27.15625 -0.703125 C 26.8125 -0.234375 26.335938 0 25.734375 0 L 21.796875 0 C 21.046875 0 20.367188 -0.210938 19.765625 -0.640625 C 19.160156 -1.078125 18.757812 -1.640625 18.5625 -2.328125 L 16.671875 -8.203125 C 16.347656 -9.210938 15.941406 -9.929688 15.453125 -10.359375 C 14.960938 -10.796875 14.316406 -11.015625 13.515625 -11.015625 L 11.921875 -11.015625 C 11.679688 -11.015625 11.5625 -10.882812 11.5625 -10.625 L 11.5625 -2.453125 C 11.5625 -1.796875 11.316406 -1.222656 10.828125 -0.734375 C 10.347656 -0.242188 9.773438 0 9.109375 0 L 5.609375 0 C 4.953125 0 4.378906 -0.242188 3.890625 -0.734375 C 3.398438 -1.222656 3.15625 -1.796875 3.15625 -2.453125 L 3.15625 -28.84375 C 3.15625 -29.53125 3.375 -30.140625 3.8125 -30.671875 C 4.257812 -31.203125 4.832031 -31.5 5.53125 -31.5625 C 8.34375 -31.820312 11.289062 -31.953125 14.375 -31.953125 C 23.007812 -31.953125 27.328125 -28.710938 27.328125 -22.234375 C 27.328125 -20.453125 26.765625 -18.78125 25.640625 -17.21875 C 24.515625 -15.664062 23.078125 -14.546875 21.328125 -13.859375 C 21.296875 -13.859375 21.28125 -13.84375 21.28125 -13.8125 C 21.28125 -13.757812 21.296875 -13.734375 21.328125 -13.734375 Z M 21.328125 -13.734375 "/></g></g></g><g fill="#6c584c" fill-opacity="1"><g transform="translate(279.536921, 285.849591)"><g><path d="M 28.578125 -29.484375 L 20.203125 -16.703125 C 20.054688 -16.503906 20.054688 -16.304688 20.203125 -16.109375 L 29.046875 -2.078125 C 29.335938 -1.609375 29.351562 -1.144531 29.09375 -0.6875 C 28.832031 -0.226562 28.429688 0 27.890625 0 L 22.875 0 C 21.238281 0 20.003906 -0.703125 19.171875 -2.109375 L 11.875 -14.640625 C 11.875 -14.660156 11.859375 -14.671875 11.828125 -14.671875 C 11.796875 -14.671875 11.78125 -14.660156 11.78125 -14.640625 L 11.78125 -2.453125 C 11.78125 -1.796875 11.535156 -1.222656 11.046875 -0.734375 C 10.554688 -0.242188 9.984375 0 9.328125 0 L 5.609375 0 C 4.953125 0 4.378906 -0.242188 3.890625 -0.734375 C 3.398438 -1.222656 3.15625 -1.796875 3.15625 -2.453125 L 3.15625 -29.046875 C 3.15625 -29.710938 3.398438 -30.289062 3.890625 -30.78125 C 4.378906 -31.269531 4.953125 -31.515625 5.609375 -31.515625 L 9.328125 -31.515625 C 9.984375 -31.515625 10.554688 -31.269531 11.046875 -30.78125 C 11.535156 -30.289062 11.78125 -29.710938 11.78125 -29.046875 L 11.78125 -18.171875 C 11.78125 -18.140625 11.796875 -18.125 11.828125 -18.125 C 11.859375 -18.125 11.875 -18.140625 11.875 -18.171875 L 18.734375 -29.4375 C 19.566406 -30.820312 20.804688 -31.515625 22.453125 -31.515625 L 27.453125 -31.515625 C 27.972656 -31.515625 28.363281 -31.285156 28.625 -30.828125 C 28.882812 -30.367188 28.867188 -29.921875 28.578125 -29.484375 Z M 28.578125 -29.484375 "/></g></g></g><g fill="#6c584c" fill-opacity="1"><g transform="translate(309.757264, 285.849591)"><g><path d="M 3.15625 -2.453125 L 3.15625 -29.046875 C 3.15625 -29.710938 3.398438 -30.289062 3.890625 -30.78125 C 4.378906 -31.269531 4.953125 -31.515625 5.609375 -31.515625 L 21.40625 -31.515625 C 22.070312 -31.515625 22.648438 -31.269531 23.140625 -30.78125 C 23.628906 -30.289062 23.875 -29.710938 23.875 -29.046875 L 23.875 -27.0625 C 23.875 -26.40625 23.628906 -25.832031 23.140625 -25.34375 C 22.648438 -24.851562 22.070312 -24.609375 21.40625 -24.609375 L 12.171875 -24.609375 C 11.910156 -24.609375 11.78125 -24.492188 11.78125 -24.265625 L 11.78125 -19.8125 C 11.78125 -19.550781 11.910156 -19.421875 12.171875 -19.421875 L 20.546875 -19.421875 C 21.210938 -19.421875 21.789062 -19.175781 22.28125 -18.6875 C 22.769531 -18.195312 23.015625 -17.625 23.015625 -16.96875 L 23.015625 -15.40625 C 23.015625 -14.75 22.769531 -14.175781 22.28125 -13.6875 C 21.789062 -13.195312 21.210938 -12.953125 20.546875 -12.953125 L 12.171875 -12.953125 C 11.910156 -12.953125 11.78125 -12.835938 11.78125 -12.609375 L 11.78125 -7.296875 C 11.78125 -7.035156 11.910156 -6.90625 12.171875 -6.90625 L 21.40625 -6.90625 C 22.070312 -6.90625 22.648438 -6.660156 23.140625 -6.171875 C 23.628906 -5.679688 23.875 -5.109375 23.875 -4.453125 L 23.875 -2.453125 C 23.875 -1.796875 23.628906 -1.222656 23.140625 -0.734375 C 22.648438 -0.242188 22.070312 0 21.40625 0 L 5.609375 0 C 4.953125 0 4.378906 -0.242188 3.890625 -0.734375 C 3.398438 -1.222656 3.15625 -1.796875 3.15625 -2.453125 Z M 3.15625 -2.453125 "/></g></g></g><g fill="#6c584c" fill-opacity="1"><g transform="translate(336.35118, 285.849591)"><g><path d="M 2.078125 -26.859375 L 2.078125 -29.046875 C 2.078125 -29.710938 2.320312 -30.289062 2.8125 -30.78125 C 3.300781 -31.269531 3.875 -31.515625 4.53125 -31.515625 L 25.515625 -31.515625 C 26.171875 -31.515625 26.742188 -31.269531 27.234375 -30.78125 C 27.722656 -30.289062 27.96875 -29.710938 27.96875 -29.046875 L 27.96875 -26.859375 C 27.96875 -26.191406 27.722656 -25.613281 27.234375 -25.125 C 26.742188 -24.632812 26.171875 -24.390625 25.515625 -24.390625 L 19.8125 -24.390625 C 19.550781 -24.390625 19.421875 -24.257812 19.421875 -24 L 19.421875 -2.453125 C 19.421875 -1.796875 19.179688 -1.222656 18.703125 -0.734375 C 18.234375 -0.242188 17.671875 0 17.015625 0 L 13.03125 0 C 12.375 0 11.804688 -0.242188 11.328125 -0.734375 C 10.859375 -1.222656 10.625 -1.796875 10.625 -2.453125 L 10.625 -24 C 10.625 -24.257812 10.492188 -24.390625 10.234375 -24.390625 L 4.53125 -24.390625 C 3.875 -24.390625 3.300781 -24.632812 2.8125 -25.125 C 2.320312 -25.613281 2.078125 -26.191406 2.078125 -26.859375 Z M 2.078125 -26.859375 "/></g></g></g></svg>