<svg width="99" height="99" viewBox="0 0 99 99" fill="none" xmlns="http://www.w3.org/2000/svg">
<path d="M66.7095 26.1392H57.0807C57.6458 27.2705 58.0223 28.5389 58.1573 29.8888C58.6658 30.1209 59.0236 30.6324 59.0236 31.2315C59.0236 31.8492 58.6441 32.3783 58.1068 32.599C57.9346 32.6691 57.7479 32.7093 57.5499 32.7093C57.3076 32.7093 57.0807 32.6495 56.8786 32.5464C56.4022 32.3009 56.0763 31.8049 56.0763 31.2315C56.0763 30.7128 56.3434 30.2601 56.7476 29.9961C56.6002 28.574 56.1495 27.2581 55.474 26.1392H43.4919C42.8154 27.2592 42.3648 28.5771 42.2183 30.0012C42.6154 30.2663 42.8804 30.7169 42.8804 31.2315C42.8804 31.8049 42.5545 32.3009 42.0781 32.5464C41.876 32.6495 41.6491 32.7093 41.4068 32.7093C41.2098 32.7093 41.0221 32.6691 40.8509 32.599C40.3126 32.3783 39.9341 31.8492 39.9341 31.2315C39.9341 30.6293 40.294 30.1147 40.8086 29.8847C40.9437 28.5358 41.3181 27.2695 41.8832 26.1382H32.241L31.0623 58.5875C31.0623 59.8941 32.1183 60.9542 33.4218 60.9542H65.5298C66.8343 60.9542 67.8913 59.8941 67.8913 58.5875L66.7095 26.1392Z" fill="white"/>
<path d="M40.9365 30.9901L40.9396 31.0158C40.954 31.2933 41.1809 31.5108 41.4563 31.5108C41.7326 31.5108 41.9595 31.2943 41.9739 31.0158L41.977 30.9519C42.01 26.1855 45.3637 22.3183 49.4825 22.3183C53.6095 22.3183 56.9693 26.1999 56.9889 30.9798L56.992 31.0158C57.0054 31.2933 57.2323 31.5108 57.5087 31.5108C57.7851 31.5108 58.0119 31.2933 58.0274 31.0158L58.0295 30.9725C58.0006 25.6183 54.1705 21.2747 49.4825 21.2747C44.7903 21.2747 40.9571 25.6286 40.9365 30.9798V30.9901Z" fill="white"/>
<path fill-rule="evenodd" clip-rule="evenodd" d="M49.8991 50.8303C46.4434 50.8303 43.6322 48.0129 43.6322 44.551C43.6322 41.0881 46.4434 38.2717 49.8991 38.2717C53.3548 38.2717 56.166 41.0881 56.166 44.551C56.166 48.0129 53.3548 50.8303 49.8991 50.8303ZM49.8991 38.775C46.7218 38.775 44.1354 41.3655 44.1354 44.551C44.1354 47.7355 46.7208 50.326 49.8991 50.326C53.0774 50.326 55.6628 47.7355 55.6628 44.551C55.6628 41.3655 53.0774 38.775 49.8991 38.775Z" fill="#A6C868"/>
<path fill-rule="evenodd" clip-rule="evenodd" d="M49.8991 54.2408C49.4093 54.2408 48.9204 54.1139 48.4832 53.8623L48.0923 53.6364C47.7386 53.4323 47.3354 53.3229 46.927 53.3229H46.4774C45.4688 53.3229 44.5294 52.7795 44.0251 51.9039L43.7993 51.5121C43.5951 51.1594 43.3001 50.8634 42.9474 50.6592L42.5576 50.4344C41.6852 49.9291 41.1407 48.9886 41.1407 47.9769V47.5253C41.1407 47.1169 41.0324 46.7137 40.8293 46.3589L40.6024 45.967C40.0981 45.0936 40.0981 44.0046 40.6024 43.1311L40.8293 42.7392C41.0324 42.3855 41.1407 41.9823 41.1407 41.5729V41.1212C41.1407 40.1106 41.6831 39.169 42.5576 38.6637L42.9474 38.4389C43.3001 38.2337 43.5961 37.9388 43.7993 37.5861L44.0251 37.1942C44.5294 36.3197 45.4678 35.7752 46.4774 35.7752L46.9281 35.7762C47.3354 35.7762 47.7386 35.6679 48.0923 35.4638L48.4832 35.2379C49.3556 34.7316 50.4415 34.7316 51.314 35.2379L51.7048 35.4638C52.0585 35.6679 52.4618 35.7762 52.8691 35.7762H53.3198C54.3283 35.7762 55.2668 36.3187 55.7721 37.1952L55.9979 37.5871C56.2021 37.9408 56.497 38.2368 56.8487 38.4399L57.2395 38.6648C58.112 39.1701 58.6565 40.1106 58.6565 41.1222V41.5739C58.6565 41.9823 58.7648 42.3855 58.9679 42.7403L59.1948 43.1321C59.6991 44.0066 59.6991 45.0946 59.1948 45.9691L58.9679 46.3599C58.7648 46.7137 58.6565 47.1179 58.6565 47.5273V47.979C58.6565 48.9886 58.114 49.9301 57.2395 50.4354L56.8487 50.6603C56.496 50.8655 56.2011 51.1614 55.9979 51.5141L55.7721 51.906C55.2668 52.7795 54.3293 53.324 53.3198 53.324L52.8691 53.3229C52.4618 53.3229 52.0585 53.4323 51.7048 53.6364L51.314 53.8623C50.8788 54.1139 50.3879 54.2408 49.8991 54.2408ZM46.4784 36.2815C45.6483 36.2815 44.8759 36.7281 44.4623 37.4479L44.2365 37.8398C43.989 38.2698 43.6301 38.6297 43.2001 38.8782L42.8093 39.1041C42.0915 39.5176 41.645 40.2931 41.645 41.1233V41.5749C41.645 42.072 41.513 42.5629 41.2655 42.9939L41.0386 43.3858C40.6251 44.1046 40.6251 44.9987 41.0386 45.7185L41.2655 46.1094C41.513 46.5404 41.645 47.0313 41.645 47.5294V47.9811C41.645 48.8123 42.0905 49.5867 42.8093 50.0003L43.2001 50.2261C43.6301 50.4746 43.988 50.8335 44.2365 51.2646L44.4623 51.6554C44.8759 52.3752 45.6493 52.8228 46.4784 52.8228L46.9291 52.8197C47.4262 52.8197 47.915 52.9517 48.346 53.2013L48.7369 53.4271C49.4546 53.8417 50.3467 53.8417 51.0644 53.4271L51.4553 53.2013C51.8843 52.9517 52.3751 52.8197 52.8712 52.8197H53.3208C54.1509 52.8197 54.9233 52.3732 55.3369 51.6534L55.5627 51.2615C55.8113 50.8314 56.1701 50.4726 56.5991 50.223L56.99 49.9982C57.7077 49.5836 58.1543 48.8081 58.1543 47.978V47.5263C58.1543 47.0292 58.2863 46.5394 58.5348 46.1073L58.7606 45.7154C59.1752 44.9966 59.1752 44.1025 58.7606 43.3827L58.5348 42.9919C58.2873 42.5608 58.1543 42.0699 58.1543 41.5729V41.1212C58.1543 40.289 57.7088 39.5155 56.99 39.101L56.5991 38.8751C56.1691 38.6276 55.8113 38.2677 55.5627 37.8377L55.3369 37.4458C54.9233 36.727 54.1499 36.2795 53.3208 36.2795L52.8701 36.2815C52.3741 36.2815 51.8843 36.1506 51.4542 35.901L51.0634 35.6741C50.3456 35.2596 49.4526 35.2596 48.7358 35.6741L48.345 35.901C47.915 36.1495 47.4241 36.2815 46.9281 36.2815H46.4784Z" fill="#A6C868"/>
<path fill-rule="evenodd" clip-rule="evenodd" d="M47.4973 48.2181C47.1745 48.2181 46.8528 48.0954 46.6063 47.8489C46.1165 47.357 46.1165 46.5567 46.6063 46.0659L51.4109 41.252C51.9018 40.7601 52.701 40.7601 53.1908 41.252C53.6807 41.7429 53.6807 42.5431 53.1908 43.035L48.3863 47.8489C48.1418 48.0933 47.8191 48.2181 47.4973 48.2181ZM46.9631 47.4921C47.257 47.787 47.7366 47.787 48.0315 47.4921L52.8351 42.6772C53.13 42.3833 53.13 41.9017 52.8351 41.6078C52.5422 41.3128 52.0627 41.3128 51.7677 41.6078L46.9631 46.4216C46.6682 46.7176 46.6682 47.1961 46.9631 47.4921Z" fill="#A6C868"/>
<path fill-rule="evenodd" clip-rule="evenodd" d="M52.2132 47.7706C51.8904 47.7706 51.5677 47.6489 51.3222 47.4024C50.8324 46.9105 50.8324 46.1113 51.3222 45.6194C51.8121 45.1285 52.6113 45.1285 53.1011 45.6194C53.592 46.1113 53.592 46.9105 53.1011 47.4024C52.8567 47.6489 52.535 47.7706 52.2132 47.7706ZM52.2132 45.7545C52.0193 45.7545 51.8255 45.8287 51.678 45.9762C51.3841 46.2711 51.3841 46.7517 51.678 47.0466C51.9729 47.3416 52.4525 47.3416 52.7464 47.0466C53.0403 46.7517 53.0403 46.2711 52.7464 45.9762C52.5999 45.8287 52.4071 45.7545 52.2132 45.7545Z" fill="#A6C868"/>
<path fill-rule="evenodd" clip-rule="evenodd" d="M47.9418 43.4921C47.619 43.4921 47.2972 43.3693 47.0528 43.1229C46.562 42.631 46.562 41.8317 47.0528 41.3398C47.5437 40.849 48.3419 40.849 48.8328 41.3398C49.3226 41.8317 49.3226 42.631 48.8328 43.1229C48.5863 43.3693 48.2646 43.4921 47.9418 43.4921ZM47.9418 41.4749C47.7489 41.4749 47.5551 41.5492 47.4076 41.6977C47.1137 41.9916 47.1137 42.4721 47.4076 42.7671C47.7015 43.062 48.1821 43.062 48.476 42.7671C48.7709 42.4721 48.7709 41.9916 48.476 41.6977C48.3285 41.5502 48.1346 41.4749 47.9418 41.4749Z" fill="#A6C868"/>
<path fill-rule="evenodd" clip-rule="evenodd" d="M58.708 37.2364C57.8748 37.2364 57.1983 36.5579 57.1983 35.7236C57.1983 34.8883 57.8748 34.2097 58.708 34.2097C59.5413 34.2097 60.2178 34.8883 60.2178 35.7236C60.2178 36.5579 59.5413 37.2364 58.708 37.2364ZM58.708 34.715C58.1532 34.715 57.7005 35.1677 57.7005 35.7246C57.7005 36.2805 58.1532 36.7332 58.708 36.7332C59.2628 36.7332 59.7145 36.2805 59.7145 35.7246C59.7145 35.1677 59.2628 34.715 58.708 34.715Z" fill="#A6C868"/>
<path fill-rule="evenodd" clip-rule="evenodd" d="M40.8385 55.8969C39.7279 55.8969 38.8245 54.9924 38.8245 53.8797C38.8245 52.767 39.7279 51.8616 40.8385 51.8616C41.9492 51.8616 42.8526 52.767 42.8526 53.8797C42.8526 54.9935 41.9492 55.8969 40.8385 55.8969ZM40.8385 52.3669C40.0063 52.3669 39.3278 53.0465 39.3278 53.8808C39.3278 54.715 40.0063 55.3936 40.8385 55.3936C41.6708 55.3936 42.3483 54.715 42.3483 53.8808C42.3483 53.0465 41.6708 52.3669 40.8385 52.3669Z" fill="#A6C868"/>
<path d="M3.10097 74.8165V67.7958C3.10097 67.6205 3.16491 67.4679 3.29484 67.3379C3.42375 67.209 3.57534 67.144 3.74859 67.144H7.91897C8.09428 67.144 8.24691 67.209 8.37684 67.3379C8.50575 67.4679 8.57072 67.6205 8.57072 67.7958V68.3197C8.57072 68.4929 8.50575 68.6445 8.37684 68.7734C8.24691 68.9034 8.09428 68.9673 7.91897 68.9673H5.48109C5.412 68.9673 5.37797 68.9982 5.37797 69.058V70.2337C5.37797 70.3028 5.412 70.3368 5.48109 70.3368H7.69209C7.86741 70.3368 8.02003 70.4018 8.14997 70.5307C8.27887 70.6606 8.34384 70.8112 8.34384 70.9844V71.3969C8.34384 71.5702 8.27887 71.7218 8.14997 71.8507C8.02003 71.9806 7.86741 72.0445 7.69209 72.0445H5.48109C5.412 72.0445 5.37797 72.0755 5.37797 72.1353V73.5378C5.37797 73.6069 5.412 73.6409 5.48109 73.6409H7.91897C8.09428 73.6409 8.24691 73.7059 8.37684 73.8348C8.50575 73.9647 8.57072 74.1153 8.57072 74.2885V74.8165C8.57072 74.9898 8.50575 75.1414 8.37684 75.2703C8.24691 75.4002 8.09428 75.4642 7.91897 75.4642H3.74859C3.57534 75.4642 3.42375 75.4002 3.29484 75.2703C3.16491 75.1414 3.10097 74.9898 3.10097 74.8165Z" fill="white"/>
<path d="M14.2798 68.8518C13.5424 68.8518 12.969 69.0643 12.5596 69.4871C12.1492 69.9078 11.945 70.5142 11.945 71.3062C11.945 72.0652 12.1595 72.6633 12.5885 73.1006C13.0175 73.5378 13.5806 73.7564 14.2798 73.7564C14.7273 73.7564 15.1687 73.6533 15.6039 73.4471C15.7462 73.3708 15.8988 73.3604 16.0618 73.4182C16.2268 73.4759 16.335 73.5811 16.3876 73.7317L16.5609 74.1772C16.6289 74.3504 16.632 74.5299 16.5691 74.7134C16.5083 74.8949 16.3959 75.0269 16.2309 75.1094C15.5843 75.4229 14.8583 75.5797 14.0529 75.5797C12.7081 75.5797 11.6294 75.1981 10.8189 74.4329C10.0104 73.6688 9.60614 72.6262 9.60614 71.3062C9.60614 69.9676 9.99492 68.9199 10.7735 68.1629C11.5542 67.407 12.6473 67.0286 14.0529 67.0286C14.8583 67.0286 15.5843 67.1853 16.2309 67.4988C16.3959 67.5813 16.5083 67.7154 16.5691 67.8989C16.632 68.0804 16.6289 68.2578 16.5609 68.4311L16.3876 68.8766C16.335 69.0282 16.2268 69.1323 16.0618 69.1901C15.8988 69.2478 15.7462 69.2385 15.6039 69.1612C15.1687 68.9549 14.7273 68.8518 14.2798 68.8518Z" fill="white"/>
<path d="M19.8662 71.3062C19.8662 72.9015 20.5107 73.6987 21.8008 73.6987C23.093 73.6987 23.7396 72.9015 23.7396 71.3062C23.7396 69.7088 23.093 68.9096 21.8008 68.9096C20.5107 68.9096 19.8662 69.7088 19.8662 71.3062ZM18.6823 68.1753C19.4547 67.4112 20.4942 67.0286 21.8008 67.0286C23.1095 67.0286 24.149 67.4112 24.9193 68.1753C25.6917 68.9405 26.0785 69.9841 26.0785 71.3062C26.0785 72.6262 25.6917 73.6688 24.9193 74.4329C24.149 75.1981 23.1095 75.5797 21.8008 75.5797C20.4942 75.5797 19.4547 75.1981 18.6823 74.4329C17.912 73.6688 17.5273 72.6262 17.5273 71.3062C17.5273 69.9841 17.912 68.9405 18.6823 68.1753Z" fill="white"/>
<path d="M31.9565 71.6898V67.7958C31.9565 67.6205 32.0204 67.4679 32.1504 67.3379C32.2793 67.209 32.4319 67.144 32.6082 67.144H33.5322C33.7055 67.144 33.8561 67.209 33.986 67.3379C34.1149 67.4679 34.1799 67.6205 34.1799 67.7958V74.8165C34.1799 74.9898 34.1149 75.1414 33.986 75.2703C33.8561 75.4002 33.7055 75.4642 33.5322 75.4642H32.6082C32.1731 75.4642 31.8544 75.2744 31.6512 74.8949L29.4732 70.9184C29.4732 70.9102 29.4691 70.906 29.4609 70.906C29.4526 70.906 29.4485 70.9102 29.4485 70.9184V74.8165C29.4485 74.9898 29.3835 75.1414 29.2546 75.2703C29.1278 75.4002 28.9762 75.4642 28.8009 75.4642H27.8769C27.7036 75.4642 27.552 75.4002 27.4231 75.2703C27.2932 75.1414 27.2292 74.9898 27.2292 74.8165V67.7958C27.2292 67.6205 27.2932 67.4679 27.4231 67.3379C27.552 67.209 27.7036 67.144 27.8769 67.144H28.8009C29.2319 67.144 29.5516 67.3338 29.7579 67.7133L31.9359 71.6898C31.9359 71.698 31.9379 71.7022 31.9441 71.7022C31.9524 71.7022 31.9565 71.698 31.9565 71.6898Z" fill="white"/>
<path d="M37.6689 71.3062C37.6689 72.9015 38.3135 73.6987 39.6036 73.6987C40.8957 73.6987 41.5423 72.9015 41.5423 71.3062C41.5423 69.7088 40.8957 68.9096 39.6036 68.9096C38.3135 68.9096 37.6689 69.7088 37.6689 71.3062ZM36.4851 68.1753C37.2575 67.4112 38.297 67.0286 39.6036 67.0286C40.9122 67.0286 41.9517 67.4112 42.7221 68.1753C43.4945 68.9405 43.8812 69.9841 43.8812 71.3062C43.8812 72.6262 43.4945 73.6688 42.7221 74.4329C41.9517 75.1981 40.9122 75.5797 39.6036 75.5797C38.297 75.5797 37.2575 75.1981 36.4851 74.4329C35.7147 73.6688 35.3301 72.6262 35.3301 71.3062C35.3301 69.9841 35.7147 68.9405 36.4851 68.1753Z" fill="white"/>
<path d="M52.9752 72.0322L54.6623 67.7463C54.7304 67.5648 54.8459 67.4194 55.0088 67.309C55.1708 67.1997 55.3512 67.144 55.5492 67.144H56.6671C56.8424 67.144 56.995 67.209 57.125 67.3379C57.2539 67.4679 57.3188 67.6205 57.3188 67.7958V74.8165C57.3188 74.9898 57.2539 75.1414 57.125 75.2703C56.995 75.4002 56.8424 75.4642 56.6671 75.4642H55.7802C55.6039 75.4642 55.4513 75.4002 55.3223 75.2703C55.1924 75.1414 55.1285 74.9898 55.1285 74.8165V70.9184C55.1285 70.9102 55.1243 70.906 55.1161 70.906C55.1099 70.906 55.1078 70.9102 55.1078 70.9184L54.2292 73.15C54.1601 73.3315 54.0436 73.479 53.8786 73.5914C53.7157 73.7018 53.5362 73.7564 53.3382 73.7564H52.5875C52.3895 73.7564 52.208 73.7018 52.043 73.5914C51.88 73.479 51.7645 73.3315 51.6965 73.15L50.822 70.9184C50.822 70.9102 50.8178 70.906 50.8096 70.906C50.8013 70.906 50.7972 70.9102 50.7972 70.9184V74.8165C50.7972 74.9898 50.7323 75.1414 50.6033 75.2703C50.4734 75.4002 50.3228 75.4642 50.1496 75.4642H49.304C49.1307 75.4642 48.9791 75.4002 48.8502 75.2703C48.7203 75.1414 48.6563 74.9898 48.6563 74.8165V67.7958C48.6563 67.6205 48.7203 67.4679 48.8502 67.3379C48.9791 67.209 49.1307 67.144 49.304 67.144H50.3765C50.5745 67.144 50.7539 67.1997 50.9168 67.309C51.0818 67.4194 51.1973 67.5648 51.2633 67.7463L52.9505 72.0322C52.9505 72.0404 52.9546 72.0445 52.9628 72.0445C52.9711 72.0445 52.9752 72.0404 52.9752 72.0322Z" fill="white"/>
<path d="M61.4904 72.16H62.7898C62.8558 72.16 62.8815 72.1301 62.8681 72.0693L62.1628 69.091C62.1628 69.0859 62.1545 69.0828 62.138 69.0828C62.1298 69.0828 62.1256 69.0859 62.1256 69.091L61.4203 72.0693C61.4038 72.1301 61.4264 72.16 61.4904 72.16ZM61.6141 67.144H62.7196C62.9094 67.144 63.0806 67.2018 63.2353 67.3173C63.392 67.4307 63.5003 67.5772 63.5611 67.7587L65.9 74.8495C65.9516 75.0011 65.9299 75.1414 65.834 75.2703C65.7402 75.4002 65.6133 75.4642 65.4545 75.4642H64.3284C64.1355 75.4642 63.9654 75.4054 63.8169 75.2868C63.6704 75.1692 63.5745 75.0187 63.5281 74.8372L63.3219 73.9585C63.3074 73.8987 63.2662 73.8678 63.1981 73.8678H61.0779C61.017 73.8678 60.9789 73.8987 60.9624 73.9585L60.7603 74.8372C60.7128 75.0187 60.6159 75.1692 60.4674 75.2868C60.3189 75.4054 60.1498 75.4642 59.96 75.4642H58.8793C58.7194 75.4642 58.5915 75.4002 58.4956 75.2703C58.4018 75.1414 58.3812 75.0011 58.4338 74.8495L60.7685 67.7587C60.8314 67.5772 60.9397 67.4307 61.0944 67.3173C61.2511 67.2018 61.4244 67.144 61.6141 67.144Z" fill="white"/>
<path d="M69.8524 70.9061C70.2401 70.9061 70.5454 70.8102 70.7681 70.6173C70.9929 70.4224 71.1064 70.1574 71.1064 69.8212C71.1064 69.1014 70.6877 68.7404 69.8524 68.7404C69.6626 68.7404 69.4873 68.7518 69.3285 68.7734C69.2594 68.7899 69.2254 68.8333 69.2254 68.9013V70.8029C69.2254 70.872 69.2563 70.9061 69.3203 70.9061H69.8524ZM71.8035 71.8383C72.0314 71.9683 72.2201 72.1312 72.3686 72.3292C72.5171 72.5272 72.6584 72.8118 72.7935 73.1831L73.3999 74.8619C73.4514 75.0135 73.4329 75.1528 73.3421 75.2786C73.2514 75.4023 73.1256 75.4642 72.9668 75.4642H71.9273C71.7293 75.4642 71.5498 75.4085 71.391 75.2951C71.2312 75.1796 71.1249 75.0311 71.0734 74.8496L70.5743 73.2986C70.4887 73.0325 70.3814 72.8428 70.2525 72.7293C70.1226 72.6138 69.9524 72.5561 69.741 72.5561H69.3203C69.2563 72.5561 69.2254 72.5911 69.2254 72.6592V74.8166C69.2254 74.9898 69.1604 75.1414 69.0315 75.2703C68.9047 75.4003 68.7531 75.4642 68.5778 75.4642H67.6538C67.4805 75.4642 67.3289 75.4003 67.2 75.2703C67.0701 75.1414 67.0061 74.9898 67.0061 74.8166V67.8494C67.0061 67.6679 67.0639 67.5071 67.1794 67.3668C67.2969 67.2266 67.4485 67.1482 67.6331 67.1317C68.3756 67.0636 69.1532 67.0286 69.9679 67.0286C72.2469 67.0286 73.3875 67.8845 73.3875 69.5943C73.3875 70.0646 73.239 70.5059 72.942 70.9184C72.645 71.3289 72.2655 71.6238 71.8035 71.8053C71.7953 71.8053 71.7911 71.8094 71.7911 71.8177C71.7911 71.8321 71.7953 71.8383 71.8035 71.8383Z" fill="white"/>
<path d="M81.3424 67.6803L79.1314 71.0545C79.0922 71.1071 79.0922 71.1597 79.1314 71.2113L81.4661 74.9155C81.5424 75.0393 81.5466 75.162 81.4785 75.2827C81.4094 75.4044 81.3032 75.4642 81.1609 75.4642H79.8367C79.4047 75.4642 79.0788 75.2785 78.8591 74.9073L76.9327 71.599C76.9327 71.5939 76.9286 71.5908 76.9204 71.5908C76.9121 71.5908 76.908 71.5939 76.908 71.599V74.8165C76.908 74.9898 76.843 75.1414 76.7141 75.2703C76.5842 75.4002 76.4336 75.4642 76.2604 75.4642H75.2786C75.1054 75.4642 74.9538 75.4002 74.8249 75.2703C74.6949 75.1414 74.631 74.9898 74.631 74.8165V67.7958C74.631 67.6205 74.6949 67.4679 74.8249 67.3379C74.9538 67.209 75.1054 67.144 75.2786 67.144H76.2604C76.4336 67.144 76.5842 67.209 76.7141 67.3379C76.843 67.4679 76.908 67.6205 76.908 67.7958V70.6668C76.908 70.675 76.9121 70.6792 76.9204 70.6792C76.9286 70.6792 76.9327 70.675 76.9327 70.6668L78.7436 67.6927C78.9633 67.3276 79.2902 67.144 79.7254 67.144H81.0454C81.1825 67.144 81.2857 67.2049 81.3547 67.3255C81.4228 67.4472 81.4187 67.5648 81.3424 67.6803Z" fill="white"/>
<path d="M82.6092 74.8165V67.7958C82.6092 67.6205 82.6731 67.4679 82.803 67.3379C82.932 67.209 83.0835 67.144 83.2568 67.144H87.4272C87.6025 67.144 87.7551 67.209 87.885 67.3379C88.014 67.4679 88.0789 67.6205 88.0789 67.7958V68.3197C88.0789 68.4929 88.014 68.6445 87.885 68.7734C87.7551 68.9034 87.6025 68.9673 87.4272 68.9673H84.9893C84.9202 68.9673 84.8862 68.9982 84.8862 69.058V70.2337C84.8862 70.3028 84.9202 70.3368 84.9893 70.3368H87.2003C87.3756 70.3368 87.5282 70.4018 87.6582 70.5307C87.7871 70.6606 87.852 70.8112 87.852 70.9844V71.3969C87.852 71.5702 87.7871 71.7218 87.6582 71.8507C87.5282 71.9806 87.3756 72.0445 87.2003 72.0445H84.9893C84.9202 72.0445 84.8862 72.0755 84.8862 72.1353V73.5378C84.8862 73.6069 84.9202 73.6409 84.9893 73.6409H87.4272C87.6025 73.6409 87.7551 73.7059 87.885 73.8348C88.014 73.9647 88.0789 74.1153 88.0789 74.2885V74.8165C88.0789 74.9898 88.014 75.1414 87.885 75.2703C87.7551 75.4002 87.6025 75.4642 87.4272 75.4642H83.2568C83.0835 75.4642 82.932 75.4002 82.803 75.2703C82.6731 75.1414 82.6092 74.9898 82.6092 74.8165Z" fill="white"/>
<path d="M89.3453 68.3733V67.7958C89.3453 67.6205 89.4093 67.4679 89.5392 67.3379C89.6681 67.209 89.8197 67.144 89.993 67.144H95.5328C95.7061 67.144 95.8567 67.209 95.9866 67.3379C96.1155 67.4679 96.1805 67.6205 96.1805 67.7958V68.3733C96.1805 68.5496 96.1155 68.7023 95.9866 68.8312C95.8567 68.9611 95.7061 69.025 95.5328 69.025H94.0272C93.9581 69.025 93.9241 69.0601 93.9241 69.1282V74.8165C93.9241 74.9898 93.8601 75.1414 93.7343 75.2703C93.6106 75.4002 93.4621 75.4642 93.2888 75.4642H92.237C92.0637 75.4642 91.9131 75.4002 91.7873 75.2703C91.6636 75.1414 91.6017 74.9898 91.6017 74.8165V69.1282C91.6017 69.0601 91.5666 69.025 91.4986 69.025H89.993C89.8197 69.025 89.6681 68.9611 89.5392 68.8312C89.4093 68.7023 89.3453 68.5496 89.3453 68.3733Z" fill="white"/>
</svg>
