<svg width="474" height="337" viewBox="0 0 474 337" fill="none" xmlns="http://www.w3.org/2000/svg">
<g opacity="0.07">
<path d="M421.133 127.747C427.075 138.639 435.806 148.901 436.527 161.144C437.697 180.858 418.523 195.621 410.691 213.895C401.059 236.309 409.161 262.685 400.609 285.46C394.398 301.933 379.275 315.166 361.451 319.487C348.128 322.727 334.085 321.287 320.313 321.377C281.245 321.737 242.266 335.24 203.648 329.119C184.565 326.058 166.561 318.316 147.477 315.886C124.522 312.915 97.7867 316.516 81.4033 300.943C58.4485 279.158 75.4621 239.1 58.2685 212.995C52.6874 204.533 43.7755 197.961 40.8049 188.51C37.2942 177.347 42.9653 165.555 49.9868 156.013C57.0082 146.561 65.7401 137.829 69.5208 126.757C72.9415 116.765 70.8711 105.872 66.6402 96.1505C60.1589 81.2074 78.2526 47.0003 114.26 49.6109C130.733 50.7811 138.205 31.6972 156.299 26.3861C177.003 20.3549 203.018 25.2158 218.231 30.2569C233.715 35.3879 252.889 38.0885 261.801 24.9458C274.313 6.31195 311.761 3.43136 328.594 33.6776C334.716 44.6599 340.207 53.3016 353.259 52.4015C424.014 47.8105 412.222 111.634 421.133 127.747ZM228.224 25.756C228.224 28.2765 228.224 32.5974 239.386 31.8772C242.807 31.6972 245.597 29.8068 245.597 27.2863C245.597 24.7658 242.807 22.6953 239.386 22.6953C235.965 22.7853 228.224 21.7051 228.224 25.756ZM118.311 38.0885C117.951 38.2685 117.771 38.6286 117.591 38.9887C116.871 40.0689 115.61 40.7891 114.35 41.3292C113.63 41.5992 112.82 41.8693 112.28 42.4094C111.379 43.3096 111.469 44.9299 112.46 45.6501C113.27 46.2802 114.35 46.3702 115.43 46.2802C119.301 46.1002 123.082 44.6599 126.143 42.3194C130.013 39.1687 120.471 36.9183 118.311 38.0885ZM107.689 43.8497C106.338 42.9495 104.718 43.4896 103.368 44.1198C103.098 44.2998 102.828 44.4798 102.738 44.7499C102.558 45.38 103.368 45.8301 103.998 46.0101C104.988 46.2802 106.068 46.6403 107.059 46.2802C108.049 46.0101 109.039 44.7499 107.689 43.8497ZM58.3585 124.596C57.3683 121.626 55.1179 120.185 51.6071 121.896C49.5367 122.886 48.0964 124.776 46.8361 126.667C44.8557 129.727 43.1454 133.148 43.5955 136.659C43.8655 139.269 45.3959 141.7 47.5563 143.23C48.4565 143.86 49.5367 144.31 50.6169 144.31C51.8772 144.31 52.9574 143.59 53.9476 142.87C56.1981 141.16 57.9084 138.819 59.6188 136.659C60.519 135.489 61.4191 134.228 61.5992 132.878C62.0493 129.727 59.2587 127.297 58.3585 124.596ZM420.233 215.515C419.333 215.875 418.433 216.325 417.983 217.135C417.623 217.766 417.443 218.486 417.443 219.206C417.263 220.736 417.173 222.177 417.173 223.707C417.173 225.327 417.353 227.128 418.613 228.298C420.323 229.828 423.024 229.288 425.184 228.658C426.444 228.298 427.795 227.938 428.605 226.947C429.235 226.227 429.415 225.327 429.595 224.427C430.135 221.456 431.756 216.955 429.955 215.335C427.975 213.715 423.384 214.255 420.233 215.515ZM295.197 331.099C294.747 331.549 294.297 331.999 294.027 332.539C293.307 334.07 294.027 336.05 295.647 336.68C296.458 337.04 297.358 337.04 298.258 336.95C305.73 336.86 313.741 336.59 319.682 332.269C320.403 331.729 321.123 331.009 321.033 330.199C320.853 329.119 319.592 328.668 318.512 328.488C311.041 327.138 301.139 325.518 295.197 331.099ZM153.868 319.577C147.387 318.676 137.125 317.506 137.125 322.727C137.125 324.708 146.307 326.598 147.747 326.958C152.428 328.128 156.839 329.749 161.34 331.459C169.802 334.61 176.643 330.379 169.892 325.608C164.4 321.737 159.089 320.297 153.868 319.577Z" fill="#2A94F4"/>
</g>
<g opacity="0.51">
<path d="M317.702 254.583C315.632 250.622 320.403 246.391 324.814 245.581C329.224 244.771 334.175 245.401 337.596 242.611C342.277 238.92 342.007 230.908 347.138 227.938C351.279 225.597 356.77 227.847 361.091 225.957C366.492 223.617 368.022 216.055 373.424 213.535C377.654 211.464 383.236 213.805 385.396 217.945C387.556 222.086 386.566 227.487 383.596 231.178C381.255 233.969 377.744 236.039 376.304 239.37C374.054 244.681 377.654 251.072 375.494 256.473C371.623 266.375 353.259 263.405 350.019 273.577C349.299 275.827 349.569 278.258 349.389 280.688C348.848 287.71 343.897 293.831 337.776 297.342C331.655 300.853 324.453 302.023 317.432 302.563C314.551 302.743 311.491 302.833 308.97 301.483C306.54 300.222 304.919 297.972 303.569 295.541C295.107 280.328 291.597 260.344 317.702 254.583Z" fill="#A6C868"/>
</g>
<g opacity="0.51">
<path d="M180.604 240.811C183.484 236.13 178.083 230.548 172.772 229.198C167.461 227.848 161.43 228.118 157.379 224.427C152.068 219.476 153.058 209.664 147.027 205.613C142.166 202.373 135.324 204.623 130.103 201.923C123.622 198.592 122.542 189.14 116.24 185.539C111.199 182.659 104.178 184.909 101.117 189.86C98.0567 194.811 98.7768 201.472 102.108 206.243C104.718 209.934 108.769 212.725 110.299 216.956C112.64 223.617 107.599 231.179 109.669 237.93C113.54 250.443 136.315 248.462 139.195 261.245C139.825 264.125 139.285 267.006 139.285 269.977C139.285 278.618 144.776 286.63 151.978 291.491C159.179 296.352 167.821 298.513 176.373 299.773C179.884 300.313 183.574 300.673 186.815 299.233C189.876 297.972 192.126 295.272 194.017 292.481C205.809 274.388 211.93 250.263 180.604 240.811Z" fill="#A6C868"/>
</g>
<path d="M368.923 24.4055L362.621 26.566L359.921 18.7344C354.88 4.24138 338.946 -3.50023 324.453 1.54081C309.96 6.58186 302.219 22.5151 307.26 37.0081L309.96 44.8398L303.659 47.0002C298.708 48.7105 296.098 54.1117 297.808 59.0627L315.542 110.283C317.252 115.234 322.743 117.935 327.604 116.224L392.778 93.6298C397.729 91.9195 400.429 86.4283 398.719 81.4773L380.985 30.2567C379.365 25.3057 373.964 22.6052 368.923 24.4055ZM319.232 32.7773C316.442 24.8556 320.673 16.1238 328.594 13.3333C336.516 10.5427 345.248 14.7736 348.038 22.7852L350.739 30.6168L321.933 40.6089L319.232 32.7773ZM357.04 79.4969L361.541 92.5496C361.721 93.0897 361.361 93.6298 360.821 93.8999L354.52 96.0603C354.07 96.2404 353.439 95.9703 353.259 95.4302L348.758 82.3775C343.897 82.1975 339.397 79.1368 337.686 74.1858C335.526 67.8845 338.856 60.9531 345.158 58.7026C351.459 56.5422 358.39 59.8729 360.641 66.1742C362.351 71.1252 360.731 76.3463 357.04 79.4969Z" fill="#A6C868"/>
<path d="M301.319 277.988C307.71 275.287 313.381 270.156 318.152 265.295C330.935 252.063 338.856 234.869 343.087 217.045C346.868 200.932 347.678 184.369 346.958 167.895C346.868 166.545 344.708 166.455 344.798 167.895C346.598 204.893 339.216 250.172 306.18 272.677C304.289 273.937 302.399 275.197 300.328 276.097C298.978 276.638 300.058 278.528 301.319 277.988Z" fill="#A6C868"/>
<path d="M343.357 210.834C343.357 210.834 345.428 198.862 361.271 196.971C361.361 196.971 355.51 211.104 343.357 210.834Z" fill="#A6C868"/>
<path d="M338.226 228.478C338.226 228.478 343.087 217.316 358.931 219.206C358.84 219.206 349.929 231.629 338.226 228.478Z" fill="#A6C868"/>
<path d="M331.475 244.141C331.475 244.141 338.676 234.329 353.709 239.73C353.709 239.73 342.187 249.812 331.475 244.141Z" fill="#A6C868"/>
<path d="M345.788 192.2C345.788 192.2 347.858 180.408 363.431 178.607C363.431 178.607 357.76 192.56 345.788 192.2Z" fill="#A6C868"/>
<path d="M346.058 171.766C346.058 171.766 337.146 163.754 343.897 149.531C343.897 149.621 352.629 161.774 346.058 171.766Z" fill="#A6C868"/>
<path d="M346.058 183.918C346.058 183.918 334.265 181.758 332.555 166.184C332.645 166.094 346.508 171.946 346.058 183.918Z" fill="#A6C868"/>
<path d="M344.888 201.833C344.888 201.833 333.095 199.672 331.385 184.099C331.475 184.099 345.338 189.86 344.888 201.833Z" fill="#A6C868"/>
<path d="M341.827 218.665C341.827 218.665 330.215 215.695 329.674 200.032C329.674 199.942 343.087 206.693 341.827 218.665Z" fill="#A6C868"/>
<path d="M336.516 235.409C336.516 235.409 324.904 232.439 324.363 216.776C324.363 216.776 337.776 223.527 336.516 235.409Z" fill="#A6C868"/>
<path d="M180.874 273.487C174.482 270.787 168.811 265.656 164.04 260.795C151.258 247.562 143.336 230.368 139.105 212.545C135.324 196.431 134.514 179.868 135.234 163.395C135.324 162.044 137.485 161.954 137.395 163.395C135.594 200.392 142.976 245.672 176.013 268.176C177.903 269.436 179.794 270.697 181.864 271.597C183.214 272.137 182.134 274.027 180.874 273.487Z" fill="#A6C868"/>
<path d="M138.835 206.333C138.835 206.333 136.765 194.361 120.921 192.47C120.831 192.47 126.683 206.603 138.835 206.333Z" fill="#A6C868"/>
<path d="M144.056 223.977C144.056 223.977 139.195 212.814 123.352 214.705C123.352 214.705 132.264 227.127 144.056 223.977Z" fill="#A6C868"/>
<path d="M150.808 239.64C150.808 239.64 143.606 229.828 128.573 235.229C128.483 235.229 140.005 245.311 150.808 239.64Z" fill="#A6C868"/>
<path d="M136.405 187.699C136.405 187.699 134.334 175.907 118.761 174.106C118.761 174.106 124.432 188.059 136.405 187.699Z" fill="#A6C868"/>
<path d="M136.225 167.265C136.225 167.265 145.136 159.254 138.385 145.031C138.385 145.121 129.563 157.273 136.225 167.265Z" fill="#A6C868"/>
<path d="M136.135 179.418C136.135 179.418 147.927 177.257 149.637 161.684C149.637 161.594 135.684 167.445 136.135 179.418Z" fill="#A6C868"/>
<path d="M137.305 197.332C137.305 197.332 149.097 195.171 150.808 179.598C150.808 179.598 136.855 185.359 137.305 197.332Z" fill="#A6C868"/>
<path d="M140.365 214.165C140.365 214.165 151.978 211.194 152.518 195.531C152.518 195.441 139.105 202.192 140.365 214.165Z" fill="#A6C868"/>
<path d="M145.677 230.908C145.677 230.908 157.289 227.938 157.829 212.274C157.829 212.274 144.416 219.026 145.677 230.908Z" fill="#A6C868"/>
<path d="M294.837 304.814H192.846C182.314 304.814 173.852 296.262 173.852 285.82V49.3409C173.852 38.8087 182.404 30.3469 192.846 30.3469H294.747C305.279 30.3469 313.741 38.8987 313.741 49.3409V285.82C313.831 296.262 305.279 304.814 294.837 304.814Z" fill="#2A94F4"/>
<path d="M294.027 295.092H193.656C186.275 295.092 180.334 289.151 180.334 281.769V51.6819C180.334 44.3004 186.275 38.3591 193.656 38.3591H294.027C301.409 38.3591 307.35 44.3004 307.35 51.6819V281.769C307.35 289.151 301.409 295.092 294.027 295.092Z" fill="#F7F7F7"/>
<path d="M281.875 38.3593H273.593C271.072 38.3593 269.002 40.4297 269.002 42.9502V46.1909C269.002 48.7114 266.932 50.7818 264.411 50.7818H227.593C225.073 50.7818 223.002 48.7114 223.002 46.1909V42.9502C223.002 40.4297 220.932 38.3593 218.412 38.3593H194.917V36.0188H281.875V38.3593Z" fill="#2A94F4"/>
<path opacity="0.17" d="M242.086 146.561C252.228 146.561 260.45 138.339 260.45 128.197C260.45 118.055 252.228 109.833 242.086 109.833C231.944 109.833 223.723 118.055 223.723 128.197C223.723 138.339 231.944 146.561 242.086 146.561Z" fill="#2A94F4"/>
<path d="M249.198 123.966C249.198 127.927 246.047 131.078 242.086 131.078C238.126 131.078 234.975 127.927 234.975 123.966C234.975 120.005 238.126 116.855 242.086 116.855C246.047 116.855 249.198 120.005 249.198 123.966ZM252.799 153.222V143.05C252.799 137.379 248.208 132.698 242.447 132.698H241.636C235.965 132.698 231.284 137.289 231.284 143.05V153.222C231.284 154.843 232.544 156.103 234.165 156.103H249.918C251.538 156.103 252.799 154.843 252.799 153.222Z" fill="#2A94F4"/>
<path opacity="0.17" d="M286.106 167.535H198.067C194.017 167.535 190.776 164.295 190.776 160.244C190.776 156.193 194.017 152.952 198.067 152.952H286.106C290.156 152.952 293.397 156.193 293.397 160.244C293.397 164.205 290.156 167.535 286.106 167.535Z" fill="#2A94F4"/>
<path d="M283.045 162.134H201.128C200.048 162.134 199.238 161.324 199.238 160.244C199.238 159.163 200.048 158.353 201.128 158.353H283.045C284.125 158.353 284.935 159.163 284.935 160.244C284.935 161.234 284.125 162.134 283.045 162.134Z" fill="#2A94F4"/>
<path opacity="0.17" d="M286.196 193.641H198.157C194.107 193.641 190.866 190.4 190.866 186.349C190.866 182.299 194.107 179.058 198.157 179.058H286.196C290.246 179.058 293.487 182.299 293.487 186.349C293.487 190.4 290.156 193.641 286.196 193.641Z" fill="#2A94F4"/>
<path d="M200.408 188.42C199.328 188.42 198.517 187.61 198.517 186.53C198.517 185.449 199.328 184.639 200.408 184.639C201.488 184.639 202.298 185.449 202.298 186.53C202.298 187.61 201.398 188.42 200.408 188.42ZM207.969 186.53C207.969 185.449 207.159 184.639 206.079 184.639C204.999 184.639 204.189 185.449 204.189 186.53C204.189 187.61 204.999 188.42 206.079 188.42C207.069 188.42 207.969 187.61 207.969 186.53ZM213.551 186.53C213.551 185.449 212.74 184.639 211.66 184.639C210.58 184.639 209.77 185.449 209.77 186.53C209.77 187.61 210.58 188.42 211.66 188.42C212.74 188.42 213.551 187.61 213.551 186.53ZM219.222 186.53C219.222 185.449 218.412 184.639 217.331 184.639C216.251 184.639 215.441 185.449 215.441 186.53C215.441 187.61 216.251 188.42 217.331 188.42C218.412 188.42 219.222 187.61 219.222 186.53ZM224.893 186.53C224.893 185.449 224.083 184.639 223.003 184.639C221.922 184.639 221.112 185.449 221.112 186.53C221.112 187.61 221.922 188.42 223.003 188.42C224.083 188.42 224.893 187.61 224.893 186.53ZM230.564 186.53C230.564 185.449 229.754 184.639 228.674 184.639C227.594 184.639 226.783 185.449 226.783 186.53C226.783 187.61 227.594 188.42 228.674 188.42C229.664 188.42 230.564 187.61 230.564 186.53ZM236.235 186.53C236.235 185.449 235.425 184.639 234.345 184.639C233.265 184.639 232.454 185.449 232.454 186.53C232.454 187.61 233.265 188.42 234.345 188.42C235.335 188.42 236.235 187.61 236.235 186.53Z" fill="#2A94F4"/>
<path d="M122.272 277.988C122.272 277.988 120.381 288.43 119.931 290.23C119.571 291.67 118.491 292.751 117.411 293.831C117.051 294.191 116.781 294.911 116.601 295.451C116.421 295.901 116.511 296.441 116.781 296.891C121.552 304.543 131.544 305.983 131.634 305.353C131.814 304.183 129.923 302.203 127.763 301.392C125.602 300.672 123.982 298.692 123.442 296.441C122.992 294.641 122.992 292.751 123.532 290.95L125.873 282.939L122.272 277.988Z" fill="#B97A59"/>
<path d="M116.421 279.158L118.761 289.69C119.481 292.931 119.031 296.262 117.501 299.232C116.601 300.853 117.411 302.923 119.121 303.553C124.792 305.534 135.684 309.405 136.135 308.954C138.655 306.884 132.084 303.373 127.223 299.773C123.982 297.342 122.722 285.82 122.452 277.088L117.231 278.438C116.871 278.438 116.511 278.708 116.421 279.158Z" fill="#B97A59"/>
<path d="M126.143 302.743C128.483 303.553 131.004 303.733 133.344 304.093C133.614 304.093 133.884 304.273 134.064 304.363C136.315 306.074 137.485 307.874 136.135 308.954C135.594 309.404 122.722 304.813 117.771 303.103C116.691 302.743 116.24 301.483 116.781 300.493L117.771 298.692C120.381 300.312 123.172 301.753 126.143 302.743Z" fill="#0B4870"/>
<path d="M118.851 171.315C112.91 173.386 109.219 181.488 111.92 189.049C113.45 193.46 120.921 208.673 128.213 220.466C131.003 224.967 131.364 230.638 128.933 235.319C128.573 236.039 128.213 236.849 127.943 237.659C126.773 241.62 123.712 263.945 122.182 278.798C122.902 280.508 124.432 282.668 125.962 283.119C131.184 269.706 139.105 245.581 140.365 241.35C141.086 239.009 141.806 236.399 142.256 233.878C145.857 226.317 137.395 190.039 134.874 182.928C132.174 175.456 124.702 169.245 118.851 171.315Z" fill="#0B4870"/>
<path d="M122.542 129.276C127.812 129.276 132.084 123.755 132.084 116.944C132.084 110.133 127.812 104.611 122.542 104.611C117.272 104.611 113 110.133 113 116.944C113 123.755 117.272 129.276 122.542 129.276Z" fill="#0B4870"/>
<path d="M120.291 118.205C120.111 111.363 114.62 105.602 107.779 105.242C101.747 104.882 96.5264 108.573 94.546 113.884C93.8258 115.774 92.0255 116.944 90.045 116.944C89.2349 116.944 88.4247 117.034 87.5245 117.214C82.5735 118.205 78.6127 122.436 78.1626 127.567C77.7125 132.158 79.8729 136.208 83.2937 138.549C84.734 139.539 85.6342 141.159 85.8142 142.96C86.9844 151.061 94.366 157.093 102.828 156.102C110.029 155.292 115.88 149.351 116.511 142.06C116.871 137.649 115.34 133.508 112.64 130.447C117.231 128.377 120.381 123.606 120.291 118.205Z" fill="#0B4870"/>
<path d="M122.542 100.561C122.542 100.561 127.943 103.982 127.223 108.483C127.223 108.483 130.103 106.413 130.733 99.4811C131.274 94.6201 122.542 100.561 122.542 100.561Z" fill="#0B4870"/>
<path d="M131.274 124.596C134.154 126.037 137.035 127.207 140.005 127.927C142.976 128.647 146.037 128.647 149.187 128.197C152.428 127.747 155.759 126.847 159.359 126.217C162.96 125.586 166.741 125.406 170.252 125.946C170.882 126.037 171.332 126.667 171.242 127.297C171.152 127.837 170.702 128.287 170.162 128.287C166.741 128.467 163.59 129.097 160.35 130.267C157.199 131.348 153.958 132.788 150.358 133.868C146.757 134.948 142.706 135.398 138.835 134.948C134.964 134.498 131.274 133.418 127.763 131.978C125.692 131.168 124.612 128.737 125.422 126.667C126.233 124.596 128.663 123.516 130.733 124.326C130.823 124.326 130.914 124.416 131.004 124.416L131.274 124.596Z" fill="#B97A59"/>
<path d="M128.573 151.962C130.733 145.48 135.054 131.707 134.694 127.296C134.424 124.416 132.084 122.255 129.203 122.255H110.389C107.329 122.255 104.718 124.686 104.628 127.837C104.448 133.238 106.969 145.57 108.409 152.051H128.573V151.962Z" fill="#A6C868"/>
<path d="M122.362 279.248C122.632 279.068 122.812 278.708 122.812 278.348C122.452 264.575 121.552 247.021 121.281 243.691C121.281 243.331 121.191 242.97 121.101 242.52C124.072 226.227 124.522 191.3 124.792 185.179C125.152 177.167 120.291 168.075 114.08 167.715C107.779 167.445 101.027 173.926 99.0469 181.308C97.6966 186.169 102.828 212.094 108.409 230.908C109.579 234.869 109.759 239.01 109.129 243.061C108.679 245.851 108.589 248.822 108.769 250.982C109.039 254.313 112.73 267.726 116.24 279.338C116.33 279.698 116.601 279.968 116.961 279.968C118.851 280.418 120.651 280.328 122.362 279.248Z" fill="#0B4870"/>
<path d="M106.338 160.153C107.329 157.453 107.599 154.482 107.149 151.691C106.248 145.03 104.538 132.607 104.718 127.296C104.808 124.416 107.149 122.255 109.939 122.255H112.73C113.81 124.686 116.06 126.576 119.481 126.576C122.992 126.576 125.152 124.686 126.233 122.255H128.843C126.052 128.287 127.043 136.298 131.904 140.979C131.003 144.22 130.193 147.371 129.653 149.981C128.843 153.492 129.203 157.183 130.643 160.513C133.074 166.274 134.964 175.456 134.334 179.147C114.62 184.728 101.027 174.826 101.027 174.826L106.338 160.153Z" fill="#A6C868"/>
<path d="M122.542 123.515L114.08 122.615L116.781 113.343L122.272 113.973L122.542 123.515Z" fill="#B97A59"/>
<path d="M122.272 113.974L116.781 113.253L115.97 116.134C117.231 117.484 118.761 120.545 120.741 120.545C121.372 120.545 121.912 120.365 122.452 120.005L122.272 113.974Z" fill="#AA6B4F"/>
<path d="M122.452 118.475C120.561 118.475 118.581 117.575 115.79 115.144C114.17 113.794 113 111.364 113 109.653V100.561H126.953C126.953 100.561 128.033 105.422 126.953 110.193C126.233 113.794 123.892 118.475 122.452 118.475Z" fill="#B97A59"/>
<path d="M115.34 107.943C115.34 109.743 114.53 111.183 113.45 111.183C112.37 111.183 111.289 108.843 111.289 107.133C111.289 105.332 112.46 104.792 113.45 104.792C114.53 104.702 115.34 106.142 115.34 107.943Z" fill="#B97A59"/>
<path d="M111.289 101.641C111.289 98.8504 113.63 96.5099 116.421 96.5099H121.101C122.452 96.5099 123.802 96.1498 124.882 95.5197C126.503 94.6195 128.663 94.8896 129.743 96.4199C131.004 98.0402 131.544 100.291 128.393 102.361C126.863 103.351 124.612 102.271 123.082 102.721C122.992 102.721 122.902 102.721 122.812 102.721H118.671C117.231 102.721 116.15 103.891 116.06 105.332C116.06 106.232 115.25 106.952 114.35 106.952H114.17L113.54 104.792L111.199 107.942V101.641H111.289Z" fill="#0B4870"/>
<path d="M175.203 124.956C175.203 124.956 172.952 129.367 171.422 129.097C169.892 128.827 168.811 128.467 169.081 126.126C169.351 123.876 170.792 120.815 171.962 119.195C173.132 117.574 176.373 115.684 176.913 115.684C178.623 115.774 176.103 118.475 174.933 119.915C173.762 121.265 172.592 122.976 173.402 123.336C174.212 123.696 176.283 120.905 177.363 120.995C178.443 121.085 175.203 124.956 175.203 124.956Z" fill="#B97A59"/>
<path d="M125.962 100.381C125.512 102.452 126.142 103.622 119.391 106.862C112.55 110.103 110.479 108.753 108.319 112.174C108.319 112.174 109.219 106.412 113 104.432C116.781 102.452 123.262 101.191 125.332 96.6003C125.332 96.6003 126.233 99.0309 125.962 100.381Z" fill="#0B4870"/>
<path d="M110.389 130.717C110.029 130.987 109.759 131.167 109.489 131.437C109.219 131.617 108.949 131.797 108.679 131.977C108.139 132.337 107.599 132.698 107.059 132.968C105.978 133.598 104.808 134.138 103.638 134.678C101.297 135.668 98.7768 136.298 96.2563 136.748C91.1253 137.468 85.9042 136.748 81.2232 134.948C78.8827 134.048 76.7223 132.878 74.6519 131.527C72.5814 130.177 70.691 128.647 68.8907 127.026C65.3799 123.786 62.3193 120.005 59.7088 116.134C59.4387 115.684 59.5287 115.144 59.9788 114.874C60.3389 114.604 60.879 114.694 61.1491 115.054C64.2997 118.475 67.5404 121.625 71.1411 124.326C74.7419 126.936 78.6127 129.187 82.7535 130.357C84.824 130.897 86.8944 131.347 88.9648 131.437C91.0353 131.527 93.1057 131.347 95.1761 130.987C97.2465 130.627 99.2269 129.907 101.117 129.097C102.018 128.647 103.008 128.197 103.908 127.656C104.358 127.386 104.808 127.116 105.168 126.846C105.348 126.666 105.618 126.576 105.798 126.396L106.338 126.036L106.518 125.856C107.869 124.776 109.849 125.046 110.929 126.396C111.92 127.746 111.74 129.637 110.389 130.717Z" fill="#B97A59"/>
<path d="M124.612 100.831C124.612 100.831 124.882 107.853 131.004 111.183C131.004 111.183 128.303 105.872 128.483 102.452C128.663 98.9409 124.252 98.4008 124.612 100.831Z" fill="#0B4870"/>
<path d="M115.07 299.773C114.62 299.413 114.44 298.693 114.71 298.153C114.98 297.702 115.61 296.532 116.06 295.632C116.24 295.272 116.781 295.182 117.051 295.542C120.111 299.593 124.342 302.293 129.113 301.933C130.823 302.653 132.264 304.724 132.084 305.714C132.084 305.894 130.013 306.434 127.583 305.624C116.961 302.113 115.07 299.773 115.07 299.773Z" fill="#0B4870"/>
<path d="M61.5092 111.994C61.5092 111.994 64.4798 115.955 63.5796 117.305C62.6794 118.655 61.7792 119.375 59.8888 118.115C57.9084 116.855 55.838 114.244 54.8478 112.354C53.8576 110.463 53.6776 106.773 53.8576 106.323C54.7578 104.792 56.108 108.303 56.8282 110.013C57.5483 111.724 58.5386 113.524 59.2587 112.894C59.9789 112.354 58.2685 109.203 58.8986 108.303C59.5287 107.313 61.5092 111.994 61.5092 111.994Z" fill="#B97A59"/>
<path d="M459.211 331.099H14.5195C6.77787 331.099 0.566589 324.887 0.566589 317.146C0.566589 309.404 6.77787 303.193 14.5195 303.193H459.211C466.953 303.193 473.164 309.404 473.164 317.146C473.164 324.887 466.953 331.099 459.211 331.099Z" fill="#D3D3D3"/>
<path d="M111.109 64.5537L105.258 58.1624L33.6034 123.696C28.6524 120.545 22.3511 119.735 16.4099 121.986C6.50784 125.766 1.5568 136.839 5.4276 146.741C9.2984 156.643 20.2807 161.594 30.1827 157.723C40.0848 153.942 45.0358 142.87 41.165 132.968C40.8949 132.248 40.5349 131.527 40.1748 130.807L94.456 80.1269L100.937 86.5182L107.419 79.9469L102.288 74.8158L104.268 72.4753L109.579 77.2463L114.08 72.1152L108.499 66.9842L111.109 64.5537ZM27.7522 151.422C21.3609 153.852 14.0694 150.701 11.6389 144.22C9.20838 137.829 12.359 130.537 18.8404 128.107C25.2317 125.676 32.5232 128.827 34.9537 135.308C37.3842 141.79 34.1435 148.991 27.7522 151.422Z" fill="#A6C868"/>
</svg>
